<svg width="24" height="24" viewBox="0 0 24 20" xmlns="http://www.w3.org/2000/svg" fill="#fff"><path d="M10.286 13.723a.75.75 0 01.073.976l-.073.084-3.219 3.221 1.189-.001a.75.75 0 01.743.648l.007.102a.75.75 0 01-.648.743l-.102.007h-3l-.022-.001h.005l-.052-.002a.75.75 0 01-.257-.071l-.043-.023a.778.778 0 01-.082-.054l-.081-.07-.003-.003-.047-.053-.011-.015-.034-.047a.77.77 0 01-.116-.31l-.007-.101v-3a.75.75 0 011.493-.102l.007.102v1.19l3.22-3.22a.75.75 0 011.06 0zm4.42-.073l.084.073 3.221 3.22-.001-1.19a.75.75 0 01.648-.743l.102-.007a.75.75 0 01.743.648l.007.102v3.016c0 .02-.002.041-.004.061v-.008l-.009.068a.84.84 0 01-.061.189l-.023.043a.778.778 0 01-.054.082l-.071.082-.059.049.059-.05-.055.05-.016.011-.046.034a.77.77 0 01-.31.116l-.101.007h-3a.75.75 0 01-.102-1.493l.102-.007 1.19.001-3.22-3.22a.75.75 0 01.976-1.134zM4.783 4.67l.015-.011.047-.033a.77.77 0 01.31-.116l.101-.007h3a.75.75 0 01.102 1.493l-.102.007-1.188.001 3.218 3.219a.75.75 0 01-.976 1.133l-.084-.073-3.22-3.219v1.189a.75.75 0 01-.648.743l-.102.007a.75.75 0 01-.743-.648l-.007-.102v-3.03l.002-.021.001-.019.01-.067a.84.84 0 01.061-.189l.023-.043a.778.778 0 01.054-.082l.069-.081.003-.003.054-.047zm13.976-.167a.757.757 0 01.327.074l.043.023a.778.778 0 01.082.054l.08.069.051.057.01.014.035.048a.77.77 0 01.116.31l.007.101v3a.75.75 0 01-1.493.102l-.007-.102.001-1.189-3.22 3.22a.75.75 0 01-1.134-.977l.073-.084 3.219-3.219-1.189-.001a.75.75 0 01-.743-.648l-.007-.102a.75.75 0 01.648-.743l.102-.007h2.999z" fill-rule="evenodd"></path></svg>